/* XPM */
const char *cut[] = {
/* columns rows colors chars-per-pixel */
"16 16 8 1",
"  c black",
". c #694A00",
"X c #D59600",
"o c #FFB400",
"O c #FFC63D",
"+ c gray75",
"@ c #CDCDCD",
"# c gray100",
/* pixels */
"++++  ++++++++++",
"++++ @ +++++++++",
"++++ @ +++++++++",
"++++ # +++++++++",
"    + @ +++    +",
" #@@  @     OOo ",
"+   @@#@@@XO..X ",
"++++  @  OXXXXX ",
"+++++ @ +      +",
"+++++ @O +++++++",
"++++++ O +++++++",
"++++++ Oo ++++++",
"+++++ O.X ++++++",
"+++++ O.X ++++++",
"+++++ oXX ++++++",
"++++++   +++++++"
};
