/* XPM */
const char *newsrc[] = {
"16 16 55 1",
" 	c None",
".	c #BFBFBF",
"+	c #8C8C8C",
"@	c #C0C0C0",
"#	c #E8E8E8",
"$	c #E6E6E6",
"%	c #E5E5E5",
"&	c #DADADA",
"*	c #9E9E9E",
"=	c #595959",
"-	c #A0A0A0",
";	c #E7E7E7",
">	c #F8F8F8",
",	c #FEFEFE",
"'	c #FFFFFF",
")	c #FBFBFB",
"!	c #F4F4F4",
"~	c #949494",
"{	c #202020",
"]	c #888888",
"^	c #DDDDDD",
"/	c #EEEEEE",
"(	c #F7F7F7",
"_	c #FDFDFD",
":	c #FAFAFA",
"<	c #F3F3F3",
"[	c #222222",
"}	c #FCFCFC",
"|	c #E9E9E9",
"1	c #D7D7D7",
"2	c #EDEDED",
"3	c #F2F2F2",
"4	c #F5F5F5",
"5	c #D4D4D4",
"6	c #F0F0F0",
"7	c #F6F6F6",
"8	c #E4E4E4",
"9	c #ECECEC",
"0	c #F9F9F9",
"a	c #DBDBDB",
"b	c #909090",
"c	c #DCDCDC",
"d	c #F1F1F1",
"e	c #EFEFEF",
"f	c #CACACA",
"g	c #D6D6D6",
"h	c #D2D2D2",
"i	c #7A7A7A",
"j	c #7B7B7B",
"k	c #747474",
"l	c #171717",
"m	c #6E6E6E",
"n	c #272727",
"o	c #292929",
"p	c #969696",
"....++++++++++..",
"...+@###$%$&*=-.",
"..+@;>,'')!%~{].",
"..+^/()_,:<;~[].",
"..+&/<(:_}>|~[].",
"..+1234>_:!;~[].",
"..+567:},_!$~[].",
"..+&37>_'}<8~[].",
"..+&9!0_'_7;~[].",
"..+a3:},''>#~[].",
"..+a/!),',(#~[].",
"..+a27_',):2b[].",
"..+c!}(!!de/~[].",
"..+f&&1gg11h+[].",
"..++ijjjjjjjkl].",
"...mnooooooooop."};
