/* XPM */
const char *opnproj[] = {
/* columns rows colors chars-per-pixel */
"16 16 18 1",
"  c black",
". c #2F2F2F",
"X c #656565",
"o c #686868",
"O c #C88E00",
"+ c #FF9E00",
"@ c #FFBB4C",
"# c #FFCE7D",
"$ c gray59",
"% c gray72",
"& c gray75",
"* c #FFD796",
"= c gray81",
"- c #D0D0D0",
"; c #DFDFDF",
": c #FFEBC8",
"> c #F3F3F3",
", c gray100",
/* pixels */
"&&o.......    &&",
"&& ,>>>>>>>>;.&&",
"&& >;;;;;;;;%.&&",
"&& >;;;;;;;-%.&&",
"&& >;X;XX;X-%.&&",
"   >;;;;;---%.&&",
" : >;XX;XX--%.&&",
" *: ;;;;----%.&&",
" *#: X;XX-X-%.&&",
" *#@: ------%.&&",
" *#@@: X-X-=%.&&",
"& #@@@: --==%.&&",
"& #@@@@: =X=%.&&",
"&& +++++: ==%.&&",
"&&&  OOOOO %$.&&",
"&&&&&      .. &&"
};
