/* XPM */
const char *paste[] = {
/* columns rows colors chars-per-pixel */
"16 16 19 1",
"  c black",
". c #686868",
"X c #747474",
"o c #896600",
"O c #A17800",
"+ c #B38600",
"@ c #C29100",
"# c #E1A800",
"$ c gray51",
"% c gray59",
"& c gray72",
"* c gray75",
"= c #CDCDCD",
"- c gray81",
"; c #D0D0D0",
": c gray84",
"> c #DFDFDF",
", c #F3F3F3",
"< c gray100",
/* pixels */
"*.             *",
"* #@@@ <= @@@+ *",
"* @<,,$==$,,>O *",
"* @,>>>XX>>>&O *",
"* @,>>>>>>>;&O *",
"* @,>>>>>>;;&O *",
"* @,>>>>>;;;&O *",
"* @,>>>>;;;;&O *",
"= @,>>>:;;;;&O =",
"& @,>>>;;;=;&O &",
"* @,>>;;;;=;&O *",
"* @,>;;;=;;;&O *",
"* @,;;;;;;;=&O *",
"* @;&&&&&&&&%O *",
"* +OOOOOOOOOOo *",
"*              *"
};
