/* XPM */
const char *saveall[] = {
/* columns rows colors chars-per-pixel */
"16 16 32 1",
"  c black",
". c #4D4B48",
"X c #696662",
"o c #696663",
"O c #696763",
"+ c #686868",
"@ c #6D6D6D",
"# c #7B7A78",
"$ c #7C7A79",
"% c #A78F00",
"& c #C6A900",
"* c #FFBF00",
"= c #FFC500",
"- c #FFC800",
"; c #FFCB00",
": c #FFCE00",
"> c #FFD000",
", c #FFD300",
"< c #FFD900",
"1 c #FFDB00",
"2 c #FFDE00",
"3 c #FFDF00",
"4 c #FFE200",
"5 c #FFE800",
"6 c #FFF17A",
"7 c #8D8D8D",
"8 c #989898",
"9 c gray75",
"0 c #D0D0D0",
"q c #DFDFDF",
"w c #F3F3F3",
"e c gray100",
/* pixels */
"+           9999",
" e+wwwwww+5 9999",
" 6 qqqqqq   9999",
" 6 qqqqq0   9999",
" 6 q+           ",
" 6 0 e+wwwwww+5 ",
" 6   6 qqqqqq   ",
" 643 6 qqqqq0   ",
" 633 6 qq0000 & ",
" 63$ 6 000000 & ",
" 1&. 6        & ",
"9    6431,,;--& ",
"9999 633$OX$==& ",
"9999 63$7XXX$=& ",
"9999 1&.@.88.&% ",
"99999           "
};
