/* XPM */
const char *xpm_goto[] = {
/* columns rows colors chars-per-pixel */
"16 16 14 1",
"  c black",
". c #2F2F2F",
"X c gray31",
"o c #686868",
"O c gray42",
"+ c #DF9E11",
"@ c gray59",
"# c gray72",
"$ c gray75",
"% c gray81",
"& c #D0D0D0",
"* c #DFDFDF",
"= c #F3F3F3",
"- c gray100",
/* pixels */
"$$$$O.......    ",
"$$$$ -========*.",
"$$$$ =********#.",
"$$$$ =*******%#.",
"$$$$ =******%%#.",
"$$$$ =*****&%%#.",
" $$$ =****&&%%#.",
"  $$ OXXXXXXXX .",
" + $ ++++++++++.",
" + $ ++++++++++.",
"  $$ OXXXXXXXX .",
" $#% =*&&&&&%%$.",
"$$$$ =%&%%%%%%#.",
"$$$$ =&&%%%%%%#.",
"$$$$ %########@.",
"$$$$ .......... "
};
