/* XPM */
const char *copy[] = {
/* columns rows colors chars-per-pixel */
"16 16 11 1",
"  c black",
". c #2F2F2F",
"X c #686868",
"o c gray59",
"O c gray72",
"+ c gray75",
"@ c gray81",
"# c #D0D0D0",
"$ c #DFDFDF",
"% c #F3F3F3",
"& c gray100",
/* pixels */
"X......    +++++",
" &%%%%%%%$.+++++",
" %$$$$$$$O.+++++",
" %$$$X......    ",
" %$$$ &%%%%%%%$.",
" %$$$ %$$$$$$$O.",
" %$$$ %$$$$$$#O.",
" %$$$ %$$$$$##O.",
" %$$# %$$$$###O.",
" %$## %$$$$###O.",
" %### %$$$####O.",
" #OOO %$$####@O.",
" .... %$####@@O.",
"+++++ %####@@@O.",
"+++++ #OOOOOOOo.",
"+++++ ......... "
};
