/* XPM */
const char *save[] = {
/* columns rows colors chars-per-pixel */
"16 16 40 1",
"  c black",
". c #4D4B48",
"X c #686561",
"o c #696662",
"O c #696663",
"+ c #696763",
"@ c #686868",
"# c #6D6D6D",
"$ c #7B7A78",
"% c #7C7A79",
"& c #A78F00",
"* c #C6A900",
"= c #FFB900",
"- c #FFBC00",
"; c #FFBF00",
": c #FFC200",
"> c #FFC500",
", c #FFC800",
"< c #FFC900",
"1 c #FFCB00",
"2 c #FFCE00",
"3 c #FFD000",
"4 c #FFD300",
"5 c #FFD600",
"6 c #FFD900",
"7 c #FFDB00",
"8 c #FFDE00",
"9 c #FFDF00",
"0 c #FFE100",
"q c #FFE200",
"w c #FFE400",
"e c #FFE800",
"r c #FFF17A",
"t c #8D8D8D",
"y c #989898",
"u c gray75",
"i c #D0D0D0",
"p c #DFDFDF",
"a c #F3F3F3",
"s c gray100",
/* pixels */
"@               ",
" sr@aaaaaaaa@re ",
" re pppppppp <  ",
" re pppppppi <  ",
" re ppppiiii <* ",
" re pppiiiii <* ",
" re iiiiiiii <* ",
" re iiiiiiii <* ",
" re          <* ",
" rw99664332<<>* ",
" r999$++++%>>:* ",
" r99$ttt+++%;;* ",
" r99Xttt+uu+;;* ",
" r69+ttt+uu+;=* ",
" 6**.###.yy.**& ",
"u               "
};
