/* XPM */
const char *search[] = {
/* columns rows colors chars-per-pixel */
"16 16 47 1",
"  c black",
". c gray6",
"X c #2F2F2F",
"o c #656565",
"O c #686868",
"+ c #6F6F6F",
"@ c #549EB7",
"# c #A66D00",
"$ c #FFC96B",
"% c gray56",
"& c gray59",
"* c gray72",
"= c gray75",
"- c #80C7DE",
"; c #81C7DE",
": c #8CCCE0",
"> c #8CD2E9",
", c #92CEE2",
"< c #91D0E4",
"1 c #97D0E2",
"2 c #97D1E2",
"3 c #95D1E5",
"4 c #97D7EC",
"5 c #98D7EB",
"6 c #9DD9ED",
"7 c #AAD8E7",
"8 c #AAD9E6",
"9 c #AAD9E7",
"0 c #ADDDEA",
"q c #AEDCEA",
"w c #AEDDEA",
"e c #B0DCE8",
"r c #B1DCE8",
"t c #B5DFEB",
"y c #B5E0EC",
"u c gray81",
"i c #D0D0D0",
"p c #DFDFDF",
"a c #C3E3EC",
"s c #C3E4EC",
"d c #C6E7EF",
"f c #D0E9EF",
"g c #D1E9EF",
"h c #D0EAF0",
"j c #E9F4F4",
"k c #F3F3F3",
"l c gray100",
/* pixels */
"OXXXXXXX    ====",
" lkkkkkkkkpX====",
" kpppppppp*X====",
" kpppp.....X====",
" kpopO%3<;%.====",
" kpp.%qy72>%.===",
" kpo.qdfd75@.===",
" kpp.tfjfq6@.===",
" kpo.qsfa75@.===",
" kpp.%7r71>+.===",
" kpoo.%<;;+$# ==",
" kpiii.....#$# =",
" kiooiouou* #$# ",
" kiiiiuuui*X ## ",
" i********&X=   ",
" XXXXXXXXXX ===="
};
