/* XPM */
const char *undo[] = {
/* columns rows colors chars-per-pixel */
"16 16 6 1",
"  c black",
". c #686868",
"X c #FF9E00",
"o c #FFBB4C",
"O c #FFCE7D",
"+ c gray75",
/* pixels */
"++++++++++++++++",
"++++++++++++++++",
"++++ +++++++++++",
"+++.O ++++++++++",
"++ Oo ++++++++++",
"+ Ooo     ++++++",
" OooooooOO   +++",
"+ ooX   ooOOO  +",
"++ XX ++  XooOO ",
"+++ X ++++ XooX ",
"++++ ++++++ XX +",
"++++++++++++  ++",
"++++++++++++++++",
"++++++++++++++++",
"++++++++++++++++",
"++++++++++++++++"
};
