/* XPM */
const char *srchrep[] = {
/* columns rows colors chars-per-pixel */
"16 16 47 1",
"  c black",
". c gray6",
"X c #2F2F2F",
"o c #656565",
"O c #686868",
"+ c #6F6F6F",
"@ c #54B78F",
"# c #A66D00",
"$ c #FFC96B",
"% c gray56",
"& c gray59",
"* c gray72",
"= c gray75",
"- c #80DEB7",
"; c #81DEB8",
": c #8CE0BD",
"> c #8CE9C3",
", c #92E2C2",
"< c #91E4C2",
"1 c #97E2C2",
"2 c #97E2C3",
"3 c #95E5C5",
"4 c #97ECC9",
"5 c #98EBC9",
"6 c #9DEDCD",
"7 c #AAE6CC",
"8 c #AAE7CD",
"9 c #AAE7CE",
"0 c #ADEACF",
"q c #AEEAD0",
"w c #AEEAD1",
"e c #B0E8CF",
"r c #B1E8D0",
"t c #B5EBD4",
"y c #B5ECD4",
"u c gray81",
"i c #D0D0D0",
"p c #DFDFDF",
"a c #C3ECD9",
"s c #C3ECDA",
"d c #C6EFDC",
"f c #D0EFE1",
"g c #D1EFE1",
"h c #D0F0E1",
"j c #E9F4ED",
"k c #F3F3F3",
"l c gray100",
/* pixels */
"OXXXXXXX    ====",
" lkkkkkkkkpX====",
" kpppppppp*X====",
" kpppp.....X====",
" kpopO%3<-%.====",
" kpp.%wy92>%.===",
" kpo.wdfa95@.===",
" kpp.tfjhe6@.===",
" kpo.0afa95@.*==",
" kpp.%9e92>+.u==",
" kpoo.%,;;+$# ==",
" kpiii.....#$# =",
" kiooiouou* #$# ",
" kiiiiuuuu*X ## ",
" i********&X=   ",
" XXXXXXXXXX ===="
};
